<svg width="30" height="48" viewBox="0 0 30 48" fill="none" xmlns="http://www.w3.org/2000/svg">
<path d="M0 4.50044C0 2.01582 1.67969 0 3.75 0V4.50044V41.3853L13.9141 32.675C14.5625 32.1125 15.4453 32.1125 16.0937 32.675L26.25 41.3853V4.50044H3.75V0H26.25C28.3203 0 30 2.01582 30 4.50044V45.7544C30 46.5983 29.6094 47.3671 28.9844 47.7515C28.3594 48.1359 27.6094 48.0703 27.0391 47.5827L15 37.2692L2.96094 47.5827C2.39062 48.0703 1.64062 48.1359 1.01562 47.7515C0.390625 47.3671 0 46.5983 0 45.7544V4.50044Z" fill="black"/>
</svg>
