<svg width="50" height="58" viewBox="0 0 50 58" fill="none" xmlns="http://www.w3.org/2000/svg">
<g clip-path="url(#clip0_7_47)">
<path d="M16.4258 43.6019C14.9609 42.9902 13.3301 43.2508 12.0703 44.3269C11.2695 45.0066 9.89257 46.0035 8.22265 46.8984C8.76952 45.2332 9.18944 43.3527 9.32616 41.3023C9.42382 39.841 9.0039 38.391 8.17382 37.2809C5.89843 34.3016 4.6875 30.8125 4.6875 27.1875C4.6875 18.1816 12.8223 9.0625 25 9.0625C37.1777 9.0625 45.3125 18.1816 45.3125 27.1875C45.3125 36.1934 37.1777 45.3125 25 45.3125C21.914 45.3125 19.0137 44.6894 16.4258 43.6019ZM2.56836 48.0086C2.41211 48.3144 2.24609 48.6203 2.07031 48.9262L2.04101 48.9828C1.88476 49.2434 1.72851 49.5039 1.57226 49.7644C1.23047 50.2969 0.859374 50.818 0.46875 51.2937C0.0195313 51.8148 -0.107422 52.5852 0.136719 53.2648C0.380859 53.9445 0.947265 54.3863 1.58203 54.3863C2.08008 54.3863 2.57812 54.3523 3.07617 54.2957L3.14453 54.2844C3.57422 54.2277 4.0039 54.1598 4.43359 54.0691C4.51171 54.0578 4.58984 54.0351 4.66796 54.0125C6.40624 53.616 8.07616 52.9363 9.56054 52.1887C11.7969 51.0559 13.7012 49.7078 14.8633 48.7223C17.9687 50.025 21.4062 50.75 25.0293 50.75C38.8379 50.75 50.0292 40.2035 50.0292 27.1875C50.0292 14.1715 38.8086 3.625 25 3.625C11.1914 3.625 0 14.1715 0 27.1875C0 32.2965 1.72851 37.0203 4.6582 40.8832C4.47265 43.6586 3.54492 46.1281 2.56836 48.0086ZM14.0625 30.8125C14.8913 30.8125 15.6861 30.4306 16.2722 29.7508C16.8582 29.0709 17.1875 28.1489 17.1875 27.1875C17.1875 26.2261 16.8582 25.3041 16.2722 24.6242C15.6861 23.9444 14.8913 23.5625 14.0625 23.5625C13.2337 23.5625 12.4388 23.9444 11.8528 24.6242C11.2667 25.3041 10.9375 26.2261 10.9375 27.1875C10.9375 28.1489 11.2667 29.0709 11.8528 29.7508C12.4388 30.4306 13.2337 30.8125 14.0625 30.8125ZM28.125 27.1875C28.125 26.2261 27.7957 25.3041 27.2097 24.6242C26.6236 23.9444 25.8288 23.5625 25 23.5625C24.1712 23.5625 23.3763 23.9444 22.7903 24.6242C22.2042 25.3041 21.875 26.2261 21.875 27.1875C21.875 28.1489 22.2042 29.0709 22.7903 29.7508C23.3763 30.4306 24.1712 30.8125 25 30.8125C25.8288 30.8125 26.6236 30.4306 27.2097 29.7508C27.7957 29.0709 28.125 28.1489 28.125 27.1875ZM35.9375 30.8125C36.7663 30.8125 37.5611 30.4306 38.1472 29.7508C38.7332 29.0709 39.0625 28.1489 39.0625 27.1875C39.0625 26.2261 38.7332 25.3041 38.1472 24.6242C37.5611 23.9444 36.7663 23.5625 35.9375 23.5625C35.1087 23.5625 34.3138 23.9444 33.7278 24.6242C33.1417 25.3041 32.8125 26.2261 32.8125 27.1875C32.8125 28.1489 33.1417 29.0709 33.7278 29.7508C34.3138 30.4306 35.1087 30.8125 35.9375 30.8125Z" fill="black"/>
</g>
<defs>
<clipPath id="clip0_7_47">
<rect width="50" height="58" fill="white"/>
</clipPath>
</defs>
</svg>
