<svg width="18" height="22" viewBox="0 0 18 22" fill="none" xmlns="http://www.w3.org/2000/svg">
<g clip-path="url(#clip0_1_40)">
<path d="M13.6547 16.8137C13.2012 16.4098 12.6141 16.3066 12.0867 16.5387C11.1551 16.9512 10.1109 17.1875 9 17.1875C4.61602 17.1875 1.6875 13.7285 1.6875 10.3125C1.6875 6.89648 4.61602 3.4375 9 3.4375C13.384 3.4375 16.3125 6.89648 16.3125 10.3125C16.3125 11.6875 15.8766 13.0109 15.0574 14.1453C14.7551 14.5621 14.6074 15.1121 14.6426 15.6707C14.6918 16.4484 14.843 17.1617 15.0398 17.7934C14.4422 17.4539 13.9465 17.0758 13.6547 16.818V16.8137ZM17.2547 18.5582C17.1914 18.4422 17.1316 18.3262 17.0754 18.2102C16.7238 17.4969 16.3898 16.5602 16.3231 15.5074C17.3777 14.0422 18 12.2504 18 10.3125C18 5.37539 13.9711 1.375 9 1.375C4.02891 1.375 4.76837e-06 5.37539 4.76837e-06 10.3125C4.76837e-06 15.2496 4.02891 19.25 9 19.25C10.3043 19.25 11.5418 18.975 12.6598 18.4809C13.0781 18.8547 13.7602 19.366 14.5688 19.7957C15.0996 20.0793 15.7043 20.3371 16.3301 20.4875C16.3582 20.4961 16.3863 20.5004 16.4145 20.509C16.5691 20.5434 16.7203 20.5734 16.8785 20.5906C16.8856 20.5906 16.8961 20.5949 16.9031 20.5949C17.0824 20.6164 17.2617 20.6293 17.441 20.6293C17.6695 20.6293 17.8734 20.4617 17.9613 20.2039C18.0492 19.9461 18 19.6539 17.8418 19.4562C17.6977 19.2758 17.5676 19.0824 17.4445 18.8762C17.3848 18.7773 17.3285 18.6785 17.2758 18.5797C17.2723 18.5711 17.2688 18.5668 17.2652 18.5582H17.2547Z" fill="black"/>
</g>
<defs>
<clipPath id="clip0_1_40">
<rect width="18" height="22" fill="white" transform="matrix(-1 0 0 1 18 0)"/>
</clipPath>
</defs>
</svg>
