<svg width="50" height="45" viewBox="0 0 50 45" fill="none" xmlns="http://www.w3.org/2000/svg">
<g clip-path="url(#clip0_7_42)">
<path d="M7.5 11.25C7.5 8.26631 8.55357 5.40483 10.4289 3.29505C12.3043 1.18526 14.8478 0 17.5 0C20.1522 0 22.6957 1.18526 24.5711 3.29505C26.4464 5.40483 27.5 8.26631 27.5 11.25C27.5 14.2337 26.4464 17.0952 24.5711 19.205C22.6957 21.3147 20.1522 22.5 17.5 22.5C14.8478 22.5 12.3043 21.3147 10.4289 19.205C8.55357 17.0952 7.5 14.2337 7.5 11.25ZM0 42.3896C0 33.7324 6.23438 26.7188 13.9297 26.7188H21.0703C28.7656 26.7188 35 33.7324 35 42.3896C35 43.8311 33.9609 45 32.6797 45H2.32031C1.03906 45 0 43.8311 0 42.3896ZM47.6016 45H36.8281C37.25 44.1738 37.5 43.2158 37.5 42.1875V41.4844C37.5 36.1494 35.3828 31.3594 32.0469 28.1426C32.2344 28.1338 32.4141 28.125 32.6016 28.125H37.3984C44.3594 28.125 50 34.4707 50 42.3018C50 43.7959 48.9219 45 47.6016 45ZM33.75 22.5C31.3281 22.5 29.1406 21.3926 27.5547 19.6084C29.0938 17.2705 30 14.3789 30 11.25C30 8.89453 29.4844 6.6709 28.5703 4.71973C30.0234 3.52441 31.8125 2.8125 33.75 2.8125C38.5859 2.8125 42.5 7.21582 42.5 12.6562C42.5 18.0967 38.5859 22.5 33.75 22.5Z" fill="black"/>
</g>
<defs>
<clipPath id="clip0_7_42">
<rect width="50" height="45" fill="white"/>
</clipPath>
</defs>
</svg>
