<svg width="18" height="20" viewBox="0 0 18 20" fill="none" xmlns="http://www.w3.org/2000/svg">
<path d="M7.93828 18.2891L7.85039 18.1992L1.69102 11.8438C0.611719 10.7305 0 9.16797 0 7.53125V7.40234C0 4.65234 1.75781 2.29297 4.19062 1.77734C5.57578 1.48047 6.99258 1.83594 8.12109 2.71875C8.4375 2.96875 8.73281 3.25781 9 3.58984C9.14766 3.40234 9.30586 3.23047 9.47461 3.07031C9.60469 2.94531 9.73828 2.82813 9.87891 2.71875C11.0074 1.83594 12.4242 1.48047 13.8094 1.77344C16.2422 2.28906 18 4.65234 18 7.40234V7.53125C18 9.16797 17.3883 10.7305 16.309 11.8438L10.1496 18.1992L10.0617 18.2891C9.77344 18.5859 9.39375 18.7539 9 18.7539C8.60625 18.7539 8.22656 18.5898 7.93828 18.2891ZM8.40586 5.66406C8.3918 5.65234 8.38125 5.63672 8.3707 5.62109L7.74492 4.83984L7.74141 4.83594C6.9293 3.82422 5.70234 3.36328 4.50703 3.61719C2.86875 3.96484 1.6875 5.55078 1.6875 7.40234V7.53125C1.6875 8.64453 2.10586 9.71094 2.84063 10.4688L9 16.8242L15.1594 10.4688C15.8941 9.71094 16.3125 8.64453 16.3125 7.53125V7.40234C16.3125 5.55469 15.1312 3.96484 13.4965 3.61719C12.3012 3.36328 11.0707 3.82813 10.2621 4.83594C10.2621 4.83594 10.2621 4.83594 10.2586 4.83984C10.2551 4.84375 10.2586 4.83984 10.2551 4.84375L9.6293 5.625C9.61875 5.64063 9.60469 5.65234 9.59414 5.66797C9.43594 5.84375 9.22148 5.94141 9 5.94141C8.77852 5.94141 8.56406 5.84375 8.40586 5.66797V5.66406Z" fill="black"/>
</svg>
