<svg width="18" height="20" viewBox="0 0 18 20" fill="none" xmlns="http://www.w3.org/2000/svg">
<path d="M1.67344 11.7344L8.02617 18.3242C8.28984 18.5977 8.63789 18.75 9 18.75C9.36211 18.75 9.71016 18.5977 9.97383 18.3242L16.3266 11.7344C17.3953 10.6289 18 9.07812 18 7.45703V7.23047C18 4.5 16.2246 2.17187 13.8023 1.72266C12.1992 1.42578 10.568 2.00781 9.42188 3.28125L9 3.75L8.57812 3.28125C7.43203 2.00781 5.80078 1.42578 4.19766 1.72266C1.77539 2.17187 0 4.5 0 7.23047V7.45703C0 9.07812 0.604687 10.6289 1.67344 11.7344Z" fill="#EF2020"/>
</svg>
