<svg width="50" height="50" viewBox="0 0 50 50" fill="none" xmlns="http://www.w3.org/2000/svg">
<g clip-path="url(#clip0_92_2)">
<path d="M33.2031 25.7812V41.4062C33.2031 42.2656 32.5 42.9688 31.6406 42.9688H28.8281" stroke="black" stroke-width="4"/>
<path d="M5 0.78125H31.6406C32.5 0.78125 33.2031 1.48437 33.2031 2.34375V21.0938" stroke="black" stroke-width="4"/>
<path fill-rule="evenodd" clip-rule="evenodd" d="M3.51562 2.34375C3.51562 1.48437 4.21875 0.78125 5.07812 0.78125L27.0312 7.03125C27.8906 7.03125 28.5937 7.73437 28.5937 8.59375V47.6562C28.5937 48.5156 27.8906 49.2188 27.0312 49.2188L5.07812 42.9688C4.21875 42.9688 3.51562 42.2656 3.51562 41.4062V2.34375Z" stroke="black" stroke-width="4"/>
<path d="M23.4375 28.9062C24.0847 28.9062 24.6094 28.3816 24.6094 27.7344C24.6094 27.0872 24.0847 26.5625 23.4375 26.5625C22.7903 26.5625 22.2656 27.0872 22.2656 27.7344C22.2656 28.3816 22.7903 28.9062 23.4375 28.9062Z" stroke="black" stroke-width="4"/>
<path d="M41.1719 27.1094V30C41.1719 30.2344 41.0156 30.4688 40.7031 30.4688L31.5625 24.375C31.3281 24.2187 31.0938 24.1406 31.0938 23.9063V23.0469C31.0938 22.8906 31.25 22.7344 31.5625 22.5781L40.7031 16.4062C40.9375 16.4062 41.0937 16.6406 41.0937 16.875V19.5312" stroke="black" stroke-width="4"/>
<path d="M39.6875 20.3125H47.2656" stroke="black" stroke-width="4"/>
<path d="M39.6875 26.5625H47.2656" stroke="black" stroke-width="4"/>
</g>
<defs>
<clipPath id="clip0_92_2">
<rect width="50" height="50" fill="white"/>
</clipPath>
</defs>
</svg>
