<svg width="25" height="25" viewBox="0 0 25 25" fill="none" xmlns="http://www.w3.org/2000/svg">
<path opacity="0.4" d="M7.40664 6.20837L16.8025 3.07296C21.0212 1.66671 23.3129 3.96879 21.9171 8.18754L18.7816 17.5833C16.6775 23.9063 13.2191 23.9063 11.115 17.5833L10.1879 14.7917L7.39622 13.8646C1.08372 11.7708 1.08372 8.32296 7.40664 6.20837Z" fill="#1675EC"/>
<path d="M12.6255 12.8958C12.4276 12.8958 12.2297 12.8229 12.0734 12.6667C11.7713 12.3646 11.7713 11.8646 12.0734 11.5625L16.0318 7.58334C16.3338 7.28126 16.8338 7.28126 17.1359 7.58334C17.438 7.88543 17.438 8.38543 17.1359 8.68751L13.1776 12.6667C13.0213 12.8125 12.8234 12.8958 12.6255 12.8958Z" fill="#1675EC"/>
</svg>
