<svg xmlns="http://www.w3.org/2000/svg" width="80" height="80" viewBox="0 0 80 80" fill="none">
  <path d="M54.6485 9.16667H12.5C10.659 9.16667 9.16669 10.659 9.16669 12.5V67.5C9.16669 69.341 10.659 70.8333 12.5 70.8333H67.5C69.341 70.8333 70.8334 69.341 70.8334 67.5V23.4375" stroke="black" stroke-linecap="round" stroke-linejoin="round"/>
  <path d="M71.4863 5.8195H55.9527C55.4327 5.8195 55.0112 6.241 55.0112 6.761V22.2947C55.0112 22.8147 55.4327 23.2362 55.9527 23.2362H71.4863C72.0063 23.2362 72.4278 22.8147 72.4278 22.2947V6.761C72.4278 6.241 72.0063 5.8195 71.4863 5.8195Z" stroke="black" stroke-linecap="round" stroke-linejoin="round"/>
  <path d="M9.19183 59.2015C9.19183 59.2015 15.9203 54.4413 19.5853 52.59C22.1438 51.2977 24.7483 49.2628 27.6057 49.4892C30.689 49.7333 32.6898 53.1827 35.6258 54.1553C37.012 54.6147 38.5323 54.8493 39.9788 54.649C41.7068 54.4095 43.3445 53.5935 44.823 52.6677C48.5373 50.3415 50.9235 46.2563 54.614 43.8923C55.932 43.0482 57.3593 42.1005 58.9228 42.0265C62.9447 41.8362 66.4542 45.336 70.4107 45.7582" stroke="black" stroke-linecap="round" stroke-linejoin="round"/>
  <path d="M23.2993 28.6975C26.9499 28.6975 29.9092 25.7382 29.9092 22.0877C29.9092 18.4372 26.9499 15.4778 23.2993 15.4778C19.6488 15.4778 16.6895 18.4372 16.6895 22.0877C16.6895 25.7382 19.6488 28.6975 23.2993 28.6975Z" stroke="black" stroke-linecap="round" stroke-linejoin="round"/>
  <path d="M60.6863 13.6837L63.7158 10.6542V18.4207" stroke="black" stroke-linecap="round" stroke-linejoin="round"/>
  <path d="M66.7528 13.6648L63.7233 10.6353V18.4018" stroke="black" stroke-linecap="round" stroke-linejoin="round"/>
</svg>