<svg width="30" height="30" viewBox="0 0 30 30" fill="none" xmlns="http://www.w3.org/2000/svg">
<path opacity="0.5" d="M15 15C17.0711 15 18.75 13.3211 18.75 11.25C18.75 9.17893 17.0711 7.5 15 7.5C12.9289 7.5 11.25 9.17893 11.25 11.25C11.25 13.3211 12.9289 15 15 15Z" stroke="black" stroke-width="3"/>
<path d="M15 27.5C21.9035 27.5 27.5 21.9035 27.5 15C27.5 8.09644 21.9035 2.5 15 2.5C8.09643 2.5 2.5 8.09644 2.5 15C2.5 21.9035 8.09643 27.5 15 27.5Z" stroke="black" stroke-width="2"/>
<path opacity="0.5" d="M22.4614 25C22.2625 21.3856 21.1559 18.75 14.9999 18.75C8.84401 18.75 7.73738 21.3856 7.53844 25" stroke="black" stroke-width="2" stroke-linecap="round"/>
</svg>
