<svg width="14" height="16" viewBox="0 0 14 16" fill="none" xmlns="http://www.w3.org/2000/svg">
<g clip-path="url(#clip0_1_30)">
<path d="M13.7302 2.64062C14.1422 2.21562 14.0765 1.58437 13.5807 1.23124C13.0849 0.878117 12.3484 0.934367 11.9364 1.35937L6.99996 6.43749L2.06351 1.35937C1.65153 0.934367 0.915069 0.878117 0.419236 1.23124C-0.0765975 1.58437 -0.142222 2.21562 0.269757 2.64062L5.47965 7.99999L0.269757 13.3594C-0.142222 13.7844 -0.0765975 14.4156 0.419236 14.7687C0.915069 15.1219 1.65153 15.0656 2.06351 14.6406L6.99996 9.56249L11.9364 14.6406C12.3484 15.0656 13.0849 15.1219 13.5807 14.7687C14.0765 14.4156 14.1422 13.7844 13.7302 13.3594L8.52028 7.99999L13.7302 2.64062Z" fill="#828282"/>
</g>
<defs>
<clipPath id="clip0_1_30">
<rect width="14" height="16" fill="white"/>
</clipPath>
</defs>
</svg>
